HIERARCHY
ROOT Hips
{
	OFFSET 0.000000 0.000000 0.000000
	CHANNELS 6 Xposition Yposition Zposition Zrotation Yrotation Xrotation 
	JOINT LHipJoint
	{
		OFFSET 0.000000 0.000000 0.000000
		CHANNELS 3 Zrotation Yrotation Xrotation
		JOINT LeftUpLeg
		{
			OFFSET 1.363060 -1.794630 0.839290
			CHANNELS 3 Zrotation Yrotation Xrotation
			JOINT LeftLeg
			{
				OFFSET 2.448110 -6.726130 0.000000
				CHANNELS 3 Zrotation Yrotation Xrotation
				JOINT LeftFoot
				{
					OFFSET 2.562200 -7.039590 0.000000
					CHANNELS 3 Zrotation Yrotation Xrotation
					JOINT LeftToeBase
					{
						OFFSET 0.157640 -0.433110 2.322550
						CHANNELS 3 Zrotation Yrotation Xrotation
						End Site
						{
							OFFSET 0.000000 0.000000 0.000000
						}
					}
				}
			}
		}
	}
	JOINT RHipJoint
	{
		OFFSET 0.000000 0.000000 0.000000
		CHANNELS 3 Zrotation Yrotation Xrotation
		JOINT RightUpLeg
		{
			OFFSET -1.305520 -1.794630 0.839290
			CHANNELS 3 Zrotation Yrotation Xrotation
			JOINT RightLeg
			{
				OFFSET -2.542530 -6.985550 0.000000
				CHANNELS 3 Zrotation Yrotation Xrotation
				JOINT RightFoot
				{
					OFFSET -2.568260 -7.056230 0.000000
					CHANNELS 3 Zrotation Yrotation Xrotation
					JOINT RightToeBase
					{
						OFFSET -0.164730 -0.452590 2.363150
						CHANNELS 3 Zrotation Yrotation Xrotation
						End Site
						{
							OFFSET 0.000000 0.000000 0.000000
						}
					}
				}
			}
		}
	}
	JOINT LowerBack
	{
		OFFSET 0.000000 0.000000 0.000000
		CHANNELS 3 Zrotation Yrotation Xrotation
		JOINT Spine
		{
			OFFSET 0.028270 2.035590 -0.193380
			CHANNELS 3 Zrotation Yrotation Xrotation
			JOINT Spine1
			{
				OFFSET 0.056720 2.048850 -0.042750
				CHANNELS 3 Zrotation Yrotation Xrotation
				JOINT Neck
				{
					OFFSET 0.000000 0.000000 0.000000
					CHANNELS 3 Zrotation Yrotation Xrotation
					JOINT Neck1
					{
						OFFSET -0.054170 1.746240 0.172020
						CHANNELS 3 Zrotation Yrotation Xrotation
						JOINT Head
						{
							OFFSET 0.104070 1.761360 -0.123970
							CHANNELS 3 Zrotation Yrotation Xrotation
							End Site
							{
								OFFSET 0.000000 0.000000 0.000000
							}
						}
					}
				}
				JOINT LeftShoulder
				{
					OFFSET 0.000000 0.000000 0.000000
					CHANNELS 3 Zrotation Yrotation Xrotation
					JOINT LeftArm
					{
						OFFSET 3.362410 1.200890 -0.311210
						CHANNELS 3 Zrotation Yrotation Xrotation
						JOINT LeftForeArm
						{
							OFFSET 4.983000 -0.000000 -0.000000
							CHANNELS 3 Zrotation Yrotation Xrotation
							JOINT LeftHand
							{
								OFFSET 3.483560 -0.000000 -0.000000
								CHANNELS 3 Zrotation Yrotation Xrotation
								JOINT LeftFingerBase
								{
									OFFSET 0.000000 0.000000 0.000000
									CHANNELS 3 Zrotation Yrotation Xrotation
									JOINT LeftHandIndex1
									{
										OFFSET 0.715260 -0.000000 -0.000000
										CHANNELS 3 Zrotation Yrotation Xrotation
										End Site
										{
											OFFSET 0.000000 0.000000 0.000000
										}
									}
								}
								JOINT LThumb
								{
									OFFSET 0.000000 0.000000 0.000000
									CHANNELS 3 Zrotation Yrotation Xrotation
									End Site
									{
										OFFSET 0.000000 0.000000 0.000000
									}
								}
							}
						}
					}
				}
				JOINT RightShoulder
				{
					OFFSET 0.000000 0.000000 0.000000
					CHANNELS 3 Zrotation Yrotation Xrotation
					JOINT RightArm
					{
						OFFSET -3.136600 1.374050 -0.404650
						CHANNELS 3 Zrotation Yrotation Xrotation
						JOINT RightForeArm
						{
							OFFSET -5.241900 -0.000000 -0.000000
							CHANNELS 3 Zrotation Yrotation Xrotation
							JOINT RightHand
							{
								OFFSET -3.444170 -0.000000 -0.000000
								CHANNELS 3 Zrotation Yrotation Xrotation
								JOINT RightFingerBase
								{
									OFFSET 0.000000 0.000000 0.000000
									CHANNELS 3 Zrotation Yrotation Xrotation
									JOINT RightHandIndex1
									{
										OFFSET -0.622530 -0.000000 -0.000000
										CHANNELS 3 Zrotation Yrotation Xrotation
										End Site
										{
											OFFSET 0.000000 0.000000 0.000000
										}
									}
								}
								JOINT RThumb
								{
									OFFSET 0.000000 0.000000 0.000000
									CHANNELS 3 Zrotation Yrotation Xrotation
									End Site
									{
										OFFSET 0.000000 0.000000 0.000000
									}
								}
							}
						}
					}
				}
			}
		}
	}
}
MOTION
Frames: 4
Frame Time: 0.033333
0.679044 16.862019 -11.609772 90.148863 -27.167338 -43.463435 -95.852644 -50.040930 58.713555 -6.844949 1.796227 -48.009028 -54.002358 67.623120 -50.613551 -2.841068 17.333174 4.765900 0.941169 0.179324 -56.784877 31.162334 -6.758778 -107.193491 64.139709 -76.137541 -110.564155 108.884165 -51.220477 -110.819395 -20.793299 -13.068241 9.153430 0.078206 -0.048509 -45.845466 -81.876687 67.962091 0.093562 -176.037653 74.827998 -175.855817 -163.919957 72.133149 -170.518444 -7.294209 14.840890 5.427659 14.782142 -7.998218 -4.744430 0.046202 -0.092321 0.048397 88.917937 57.906353 -21.843168 0.876339 76.535614 -48.035420 -68.153384 48.612144 -145.773116 -16.325806 -20.622776 19.637062 5.833487 20.819232 -23.033805 -0.027486 -0.067040 0.048217 0.073557 0.066232 -0.064380 73.580482 68.766058 93.141894 51.413850 27.766618 177.910322 -2.072505 -35.011806 55.159975 13.308193 -13.179734 -15.555740 15.430230 -3.554106 -104.187725 -0.036117 0.077551 -0.063453 -0.090908 -0.047971 -0.037213 
0.633148 16.947149 -10.949776 90.130998 -27.244226 -43.068710 -97.273863 -50.881028 58.758788 -5.971161 4.271896 -47.375080 -53.657419 68.920183 -47.054280 -6.464945 18.566853 8.743976 1.260539 0.173478 -56.096125 30.287556 -8.421221 -108.845831 70.825557 -78.568873 -116.374542 109.121789 -51.217085 -110.126393 -22.086431 -10.561245 8.721106 -0.114182 -0.061042 -44.387805 -80.269575 67.964993 2.527611 -173.126717 74.532972 -173.151217 -165.195499 71.887771 -172.382792 -7.034722 16.941453 6.268655 17.699226 -13.056658 -1.922400 0.056969 -0.036960 0.073143 88.036256 57.979508 -23.085719 10.502084 77.504613 -39.383703 -59.946771 45.347477 -138.510312 -16.462212 -23.525128 12.253063 9.534198 19.831283 -22.146358 -0.071643 -0.067476 0.067478 0.046598 0.044821 -0.071480 75.535801 67.713799 95.500341 50.473032 30.319873 176.367104 -5.136648 -37.719673 57.759576 11.680681 -13.445966 -9.866682 35.932970 8.943242 -105.179478 -0.057208 0.048436 -0.060686 -0.012250 -0.069636 -0.052222 
0.539447 17.039347 -10.333999 90.656730 -27.862871 -42.724518 -96.172387 -51.161409 55.905053 -3.684547 6.353628 -46.172073 -60.406882 71.165494 -46.125162 -7.822483 20.273078 10.924728 1.853305 0.172916 -52.996985 30.026895 -9.267208 -109.651779 75.767305 -79.775286 -121.310890 109.015529 -52.043769 -108.903913 -22.341710 -11.318214 5.158123 -0.169258 -0.072322 -42.392860 -78.808580 68.637489 4.577226 -170.174966 74.747334 -169.471250 -162.768934 71.038836 -170.630594 -7.696358 14.840519 6.594188 21.438060 -12.237189 -1.291978 0.069604 -0.055934 0.047802 85.028282 57.952145 -25.696388 19.789356 79.583304 -32.418060 -51.392290 40.898698 -130.678351 -8.568720 -20.417559 4.276031 5.438830 10.318836 -18.988120 -0.054863 -0.066209 0.063167 0.089503 0.077107 -0.063216 77.832378 66.260883 97.332133 49.163196 33.419104 175.169872 -8.963104 -38.648055 64.993833 3.420711 -9.064473 -5.565606 38.502132 10.803433 -94.365013 -0.046332 0.033676 -0.062816 -0.083095 -0.071294 -0.061032 
0.420027 17.116499 -9.754012 90.452999 -27.639891 -41.947831 -95.921799 -50.395799 55.641639 -0.567375 7.655373 -45.854827 -70.950099 72.625993 -49.784978 -9.657976 19.348937 11.927852 2.093140 0.139828 -48.953329 30.479729 -9.148536 -109.491558 72.601326 -79.277886 -119.586130 110.158013 -53.082913 -108.787892 -21.841064 -13.562022 3.995365 0.066851 -0.093718 -41.311412 -75.790317 69.199709 8.830296 -165.806524 75.382387 -165.013886 -163.984231 71.070377 -172.095682 -7.059568 13.957666 7.881245 22.313200 -9.709517 0.261195 0.088435 -0.056981 0.068618 83.688209 58.275159 -24.260989 18.891865 80.828630 -33.128747 -43.736960 38.594762 -127.262121 -10.987067 -18.628949 5.418042 -1.309293 5.710852 -16.427736 -0.085050 -0.056606 0.070599 0.052544 0.047951 -0.050500 81.480390 65.081106 101.694739 48.292352 37.134060 171.483217 -11.851839 -34.882663 75.934930 3.448664 -7.116242 -8.089198 38.004031 13.965031 -90.188274 -0.046367 0.078992 -0.037728 -0.066843 -0.044386 -0.041893 
